<?xml version="1.0" encoding="UTF-8"?>
<svg xmlns="http://www.w3.org/2000/svg" xmlns:xlink="http://www.w3.org/1999/xlink" width="631.39pt" height="282.98pt" viewBox="0 0 631.39 282.98" version="1.1">
<defs>
<clipPath id="clip1">
  <path d="M 0 261 L 631.390625 261 L 631.390625 282.980469 L 0 282.980469 Z M 0 261 "/>
</clipPath>
</defs>
<g id="surface1">
<g clip-path="url(#clip1)" clip-rule="nonzero">
<path style=" stroke:none;fill-rule:nonzero;fill:rgb(58.789063%,72.459412%,89.0625%);fill-opacity:1;" d="M 631.390625 272.402344 C 631.390625 278.246094 490.050781 282.980469 315.695313 282.980469 C 141.339844 282.980469 0 278.246094 0 272.402344 C 0 266.5625 141.339844 261.824219 315.695313 261.824219 C 490.050781 261.824219 631.390625 266.5625 631.390625 272.402344 "/>
</g>
<path style=" stroke:none;fill-rule:nonzero;fill:rgb(80.076599%,86.71875%,98.826599%);fill-opacity:1;" d="M 96.535156 223.804688 C 78.109375 223.007813 63.800781 207.421875 64.605469 188.992188 C 65.40625 170.558594 80.984375 156.265625 99.421875 157.054688 C 117.835938 157.859375 132.15625 173.441406 131.339844 191.875 C 130.558594 210.300781 114.96875 224.597656 96.535156 223.804688 Z M 142.742188 183.28125 C 138.6875 179.675781 136.539063 173.53125 137.34375 168.328125 C 137.84375 165.078125 146.996094 159.414063 146.996094 159.414063 L 133.351563 144.582031 C 133.351563 144.582031 126.945313 153.257813 123.671875 153.484375 C 118.664063 153.851563 113 151.277344 109.949219 147.097656 C 108.015625 144.4375 110.519531 133.972656 110.519531 133.972656 L 90.359375 133.105469 C 90.359375 133.105469 91.933594 143.761719 89.800781 146.226563 C 86.824219 149.648438 81.523438 151.382813 77.191406 150.519531 C 73.96875 149.875 68.753906 140.46875 68.753906 140.46875 L 53.304688 153.4375 C 53.304688 153.4375 61.671875 160.210938 61.757813 163.488281 C 61.894531 168.992188 58.96875 175.070313 54.351563 178.359375 C 51.671875 180.269531 41.210938 177.625 41.210938 177.625 L 40.085938 197.765625 C 40.085938 197.765625 50.734375 196.308594 53.175781 198.484375 C 57.230469 202.113281 59.386719 208.253906 58.574219 213.449219 C 58.074219 216.699219 48.917969 222.359375 48.917969 222.359375 L 62.5625 237.1875 C 62.5625 237.1875 68.964844 228.515625 72.242188 228.289063 C 77.238281 227.933594 82.921875 230.507813 85.972656 234.671875 C 87.90625 237.34375 85.421875 247.800781 85.421875 247.800781 L 105.566406 248.664063 C 105.566406 248.664063 103.964844 238.015625 106.113281 235.546875 C 109.09375 232.132813 114.40625 230.386719 118.742188 231.25 C 121.949219 231.910156 127.175781 241.308594 127.175781 241.308594 L 142.613281 228.339844 C 142.613281 228.339844 134.257813 221.5625 134.164063 218.28125 C 134.035156 212.78125 136.957031 206.710938 141.578125 203.410156 C 144.261719 201.515625 154.714844 204.15625 154.714844 204.15625 L 155.828125 184.019531 C 155.828125 184.019531 145.191406 185.460938 142.742188 183.28125 "/>
<path style=" stroke:none;fill-rule:nonzero;fill:rgb(80.076599%,86.71875%,98.826599%);fill-opacity:1;" d="M 97.410156 203.292969 C 90.300781 202.984375 84.789063 196.980469 85.082031 189.871094 C 85.40625 182.769531 91.40625 177.273438 98.507813 177.570313 C 105.617188 177.878906 111.121094 183.882813 110.816406 190.992188 C 110.519531 198.101563 104.507813 203.597656 97.410156 203.292969 Z M 99.082031 165.378906 C 84.992188 164.777344 73.078125 175.695313 72.476563 189.792969 C 71.867188 203.875 82.792969 215.777344 96.867188 216.394531 C 110.960938 217 122.871094 206.074219 123.480469 191.984375 C 124.09375 177.902344 113.167969 165.992188 99.082031 165.378906 "/>
<path style=" stroke:none;fill-rule:nonzero;fill:rgb(80.076599%,86.71875%,98.826599%);fill-opacity:1;" d="M 553.769531 246.609375 C 553.769531 250.398438 550.546875 253.472656 546.554688 253.472656 L 387.816406 253.472656 C 383.816406 253.472656 380.59375 250.398438 380.59375 246.609375 L 380.59375 152.222656 C 380.59375 148.433594 383.816406 145.363281 387.816406 145.363281 L 546.554688 145.363281 C 550.546875 145.363281 553.769531 148.433594 553.769531 152.222656 L 553.769531 246.609375 "/>
<path style=" stroke:none;fill-rule:nonzero;fill:rgb(14.892578%,30.200195%,52.539063%);fill-opacity:1;" d="M 546.554688 145.363281 L 387.816406 145.363281 C 383.816406 145.363281 380.59375 148.433594 380.59375 152.222656 L 380.59375 164.949219 L 553.769531 164.949219 L 553.769531 152.222656 C 553.769531 148.433594 550.546875 145.363281 546.554688 145.363281 "/>
<path style=" stroke:none;fill-rule:nonzero;fill:rgb(80.076599%,86.71875%,98.826599%);fill-opacity:1;" d="M 520.40625 152.34375 C 518.714844 152.34375 517.335938 153.636719 517.335938 155.21875 C 517.335938 156.796875 518.714844 158.082031 520.40625 158.082031 C 522.089844 158.082031 523.457031 156.796875 523.457031 155.21875 C 523.457031 153.636719 522.089844 152.34375 520.40625 152.34375 Z M 520.40625 159.148438 C 518.125 159.148438 516.273438 157.382813 516.273438 155.21875 C 516.273438 153.046875 518.125 151.28125 520.40625 151.28125 C 522.675781 151.28125 524.523438 153.046875 524.523438 155.21875 C 524.523438 157.382813 522.675781 159.148438 520.40625 159.148438 "/>
<path style=" stroke:none;fill-rule:nonzero;fill:rgb(80.076599%,86.71875%,98.826599%);fill-opacity:1;" d="M 531.296875 152.34375 C 529.617188 152.34375 528.242188 153.636719 528.242188 155.21875 C 528.242188 156.796875 529.617188 158.082031 531.296875 158.082031 C 532.988281 158.082031 534.355469 156.796875 534.355469 155.21875 C 534.355469 153.636719 532.988281 152.34375 531.296875 152.34375 Z M 531.296875 159.148438 C 529.027344 159.148438 527.175781 157.382813 527.175781 155.21875 C 527.175781 153.046875 529.027344 151.28125 531.296875 151.28125 C 533.570313 151.28125 535.414063 153.046875 535.414063 155.21875 C 535.414063 157.382813 533.570313 159.148438 531.296875 159.148438 "/>
<path style=" stroke:none;fill-rule:nonzero;fill:rgb(80.076599%,86.71875%,98.826599%);fill-opacity:1;" d="M 541.871094 152.34375 C 540.1875 152.34375 538.816406 153.636719 538.816406 155.21875 C 538.816406 156.796875 540.1875 158.082031 541.871094 158.082031 C 543.550781 158.082031 544.925781 156.796875 544.925781 155.21875 C 544.925781 153.636719 543.550781 152.34375 541.871094 152.34375 Z M 541.871094 159.148438 C 539.597656 159.148438 537.757813 157.382813 537.757813 155.21875 C 537.757813 153.046875 539.597656 151.28125 541.871094 151.28125 C 544.140625 151.28125 545.988281 153.046875 545.988281 155.21875 C 545.988281 157.382813 544.140625 159.148438 541.871094 159.148438 "/>
<path style=" stroke:none;fill-rule:nonzero;fill:rgb(88.28125%,92.96875%,100%);fill-opacity:1;" d="M 390.402344 240.328125 L 542.382813 240.328125 L 542.382813 170.929688 L 390.402344 170.929688 L 390.402344 240.328125 "/>
<path style=" stroke:none;fill-rule:nonzero;fill:rgb(96.09375%,96.09375%,100%);fill-opacity:1;" d="M 100.839844 159.007813 C 100.839844 162.929688 104.171875 166.113281 108.308594 166.113281 L 272.59375 166.113281 C 276.738281 166.113281 280.070313 162.929688 280.070313 159.007813 L 280.070313 61.320313 C 280.070313 57.398438 276.738281 54.222656 272.59375 54.222656 L 108.308594 54.222656 C 104.171875 54.222656 100.839844 57.398438 100.839844 61.320313 L 100.839844 159.007813 "/>
<path style=" stroke:none;fill-rule:nonzero;fill:rgb(27.43988%,55.271912%,96.09375%);fill-opacity:1;" d="M 108.308594 54.222656 L 272.59375 54.222656 C 276.738281 54.222656 280.070313 57.398438 280.070313 61.320313 L 280.070313 74.492188 L 100.839844 74.492188 L 100.839844 61.320313 C 100.839844 57.398438 104.171875 54.222656 108.308594 54.222656 "/>
<path style=" stroke:none;fill-rule:nonzero;fill:rgb(80.076599%,86.71875%,98.826599%);fill-opacity:1;" d="M 132.210938 64.417969 C 132.210938 66.054688 133.628906 67.386719 135.371094 67.386719 C 137.121094 67.386719 138.550781 66.054688 138.550781 64.417969 C 138.550781 62.78125 137.121094 61.445313 135.371094 61.445313 C 133.628906 61.445313 132.210938 62.78125 132.210938 64.417969 Z M 131.109375 64.417969 C 131.109375 62.171875 133.019531 60.347656 135.371094 60.347656 C 137.730469 60.347656 139.644531 62.171875 139.644531 64.417969 C 139.644531 66.660156 137.730469 68.488281 135.371094 68.488281 C 133.019531 68.488281 131.109375 66.660156 131.109375 64.417969 "/>
<path style=" stroke:none;fill-rule:nonzero;fill:rgb(80.076599%,86.71875%,98.826599%);fill-opacity:1;" d="M 120.933594 64.417969 C 120.933594 66.054688 122.347656 67.386719 124.101563 67.386719 C 125.839844 67.386719 127.261719 66.054688 127.261719 64.417969 C 127.261719 62.78125 125.839844 61.445313 124.101563 61.445313 C 122.347656 61.445313 120.933594 62.78125 120.933594 64.417969 Z M 119.832031 64.417969 C 119.832031 62.171875 121.746094 60.347656 124.101563 60.347656 C 126.445313 60.347656 128.363281 62.171875 128.363281 64.417969 C 128.363281 66.660156 126.445313 68.488281 124.101563 68.488281 C 121.746094 68.488281 119.832031 66.660156 119.832031 64.417969 "/>
<path style=" stroke:none;fill-rule:nonzero;fill:rgb(80.076599%,86.71875%,98.826599%);fill-opacity:1;" d="M 109.992188 64.417969 C 109.992188 66.054688 111.410156 67.386719 113.152344 67.386719 C 114.894531 67.386719 116.3125 66.054688 116.3125 64.417969 C 116.3125 62.78125 114.894531 61.445313 113.152344 61.445313 C 111.410156 61.445313 109.992188 62.78125 109.992188 64.417969 Z M 108.890625 64.417969 C 108.890625 62.171875 110.800781 60.347656 113.152344 60.347656 C 115.507813 60.347656 117.410156 62.171875 117.410156 64.417969 C 117.410156 66.660156 115.507813 68.488281 113.152344 68.488281 C 110.800781 68.488281 108.890625 66.660156 108.890625 64.417969 "/>
<path style=" stroke:none;fill-rule:nonzero;fill:rgb(80.076599%,86.71875%,98.826599%);fill-opacity:1;" d="M 269.925781 152.507813 L 112.628906 152.507813 L 112.628906 80.683594 L 269.925781 80.683594 L 269.925781 152.507813 "/>
<path style=" stroke:none;fill-rule:nonzero;fill:rgb(100%,70.896912%,0.784302%);fill-opacity:1;" d="M 510.753906 69.410156 L 511.070313 71.796875 C 511.066406 71.808594 512.65625 71.59375 514.21875 71.292969 C 515.785156 71.023438 517.398438 70.59375 517.398438 70.59375 L 516.726563 68.273438 C 516.726563 68.273438 515.292969 68.644531 513.777344 68.921875 C 512.273438 69.203125 510.753906 69.410156 510.753906 69.410156 "/>
<path style=" stroke:none;fill-rule:nonzero;fill:rgb(100%,70.896912%,0.784302%);fill-opacity:1;" d="M 501.644531 69.851563 L 501.566406 72.273438 C 501.566406 72.273438 503.164063 72.371094 504.769531 72.292969 C 506.359375 72.226563 507.96875 72.136719 507.96875 72.136719 L 507.769531 69.722656 C 507.769531 69.722656 506.238281 69.808594 504.707031 69.878906 C 503.175781 69.949219 501.644531 69.851563 501.644531 69.851563 "/>
<path style=" stroke:none;fill-rule:nonzero;fill:rgb(100%,70.896912%,0.784302%);fill-opacity:1;" d="M 492.660156 68.683594 L 492.097656 71.039063 C 492.097656 71.039063 493.675781 71.355469 495.253906 71.675781 C 496.835938 71.9375 498.445313 72.066406 498.445313 72.066406 L 498.671875 69.660156 C 498.671875 69.660156 497.148438 69.53125 495.644531 69.300781 C 494.144531 68.992188 492.660156 68.683594 492.660156 68.683594 "/>
<path style=" stroke:none;fill-rule:nonzero;fill:rgb(100%,70.896912%,0.784302%);fill-opacity:1;" d="M 484.320313 65.484375 L 483.097656 67.578125 C 483.097656 67.578125 484.5625 68.28125 486.023438 68.984375 C 486.734375 69.378906 487.5 69.644531 488.09375 69.8125 C 488.667969 70.003906 489.058594 70.128906 489.058594 70.128906 L 489.835938 67.839844 C 489.871094 67.785156 488.355469 67.5 487.015625 66.789063 C 485.667969 66.140625 484.320313 65.484375 484.320313 65.484375 "/>
<path style=" stroke:none;fill-rule:nonzero;fill:rgb(100%,70.896912%,0.784302%);fill-opacity:1;" d="M 477.300781 59.957031 L 475.53125 61.636719 C 475.53125 61.636719 476.699219 62.746094 477.882813 63.863281 C 479 65.0625 480.492188 65.78125 480.441406 65.847656 L 481.847656 63.871094 C 481.898438 63.820313 480.492188 63.160156 479.460938 62.035156 C 478.378906 60.996094 477.300781 59.957031 477.300781 59.957031 "/>
<path style=" stroke:none;fill-rule:nonzero;fill:rgb(100%,70.896912%,0.784302%);fill-opacity:1;" d="M 472.3125 52.558594 L 470.160156 53.652344 C 470.160156 53.652344 470.890625 55.101563 471.628906 56.542969 C 472.585938 57.847656 473.542969 59.152344 473.542969 59.152344 L 475.449219 57.671875 C 475.449219 57.671875 474.558594 56.464844 473.667969 55.238281 C 472.992188 53.898438 472.3125 52.558594 472.3125 52.558594 "/>
<path style=" stroke:none;fill-rule:nonzero;fill:rgb(100%,70.896912%,0.784302%);fill-opacity:1;" d="M 469.03125 43.691406 L 466.941406 45.066406 L 468.789063 50.816406 L 471.011719 49.867188 L 469.03125 43.691406 "/>
<path style=" stroke:none;fill-rule:nonzero;fill:rgb(100%,70.896912%,0.784302%);fill-opacity:1;" d="M 465.769531 34.636719 L 463.984375 36.589844 C 463.984375 36.589844 464.582031 37.976563 465.171875 39.363281 C 465.695313 40.773438 466.09375 42.242188 466.09375 42.242188 L 468.074219 40.660156 C 468.074219 40.660156 467.648438 39.09375 467.066406 37.585938 C 466.417969 36.109375 465.769531 34.636719 465.769531 34.636719 "/>
<path style=" stroke:none;fill-rule:nonzero;fill:rgb(100%,70.896912%,0.784302%);fill-opacity:1;" d="M 460.710938 26.523438 L 459.359375 28.925781 C 459.359375 28.925781 460.3125 30.089844 461.164063 31.335938 C 461.921875 32.644531 462.675781 33.941406 462.675781 33.941406 L 464.335938 31.835938 C 464.335938 31.835938 463.496094 30.449219 462.671875 29.070313 C 461.757813 27.761719 460.710938 26.523438 460.710938 26.523438 "/>
<path style=" stroke:none;fill-rule:nonzero;fill:rgb(100%,70.896912%,0.784302%);fill-opacity:1;" d="M 453.617188 20.167969 L 452.757813 22.886719 C 452.757813 22.886719 454 23.753906 455.214844 24.636719 C 456.355469 25.621094 457.417969 26.710938 457.417969 26.710938 L 458.621094 24.183594 C 458.621094 24.183594 457.464844 23.058594 456.265625 22.007813 C 454.9375 21.085938 453.617188 20.167969 453.617188 20.167969 "/>
<path style=" stroke:none;fill-rule:nonzero;fill:rgb(100%,70.896912%,0.784302%);fill-opacity:1;" d="M 444.699219 16.855469 L 444.433594 19.726563 C 444.484375 19.441406 450.269531 21.25 450.164063 21.492188 L 450.832031 18.71875 C 450.9375 18.46875 444.769531 16.570313 444.699219 16.855469 "/>
<path style=" stroke:none;fill-rule:nonzero;fill:rgb(100%,70.896912%,0.784302%);fill-opacity:1;" d="M 435.203125 17.277344 L 435.515625 20.136719 C 435.515625 20.136719 436.996094 19.851563 438.484375 19.566406 C 439.996094 19.496094 441.496094 19.445313 441.496094 19.445313 L 441.585938 16.554688 C 441.585938 16.554688 439.960938 16.578125 438.363281 16.679688 C 436.777344 16.992188 435.203125 17.277344 435.203125 17.277344 "/>
<path style=" stroke:none;fill-rule:nonzero;fill:rgb(100%,70.896912%,0.784302%);fill-opacity:1;" d="M 426.570313 21.300781 L 427.449219 23.972656 C 427.335938 23.804688 432.609375 20.851563 432.722656 21.089844 L 432.21875 18.273438 C 432.101563 18.019531 426.449219 21.109375 426.570313 21.300781 "/>
<path style=" stroke:none;fill-rule:nonzero;fill:rgb(100%,70.896912%,0.784302%);fill-opacity:1;" d="M 419.648438 27.867188 L 421.027344 30.207031 C 421.027344 30.207031 421.265625 29.914063 421.601563 29.46875 C 421.976563 29.03125 422.386719 28.386719 422.949219 27.894531 C 424.035156 26.835938 425.109375 25.78125 425.109375 25.78125 L 424.0625 23.199219 C 424.0625 23.199219 422.90625 24.3125 421.742188 25.421875 C 421.125 25.949219 420.675781 26.617188 420.28125 27.082031 C 419.90625 27.554688 419.648438 27.867188 419.648438 27.867188 "/>
<path style=" stroke:none;fill-rule:nonzero;fill:rgb(100%,70.896912%,0.784302%);fill-opacity:1;" d="M 414.597656 36 L 416.375 37.875 C 416.375 37.875 417.066406 36.527344 417.722656 35.179688 C 418.511719 33.886719 419.3125 32.601563 419.3125 32.601563 L 417.777344 30.394531 C 417.777344 30.394531 416.925781 31.765625 416.0625 33.128906 C 415.335938 34.5625 414.597656 36 414.597656 36 "/>
<path style=" stroke:none;fill-rule:nonzero;fill:rgb(100%,70.896912%,0.784302%);fill-opacity:1;" d="M 410.941406 44.921875 L 413.042969 46.222656 C 413.042969 46.222656 413.554688 44.792969 414.066406 43.378906 C 414.578125 41.953125 415.1875 40.570313 415.1875 40.570313 L 413.277344 38.867188 C 413.277344 38.867188 412.613281 40.355469 412.050781 41.875 C 411.496094 43.402344 410.941406 44.921875 410.941406 44.921875 "/>
<path style=" stroke:none;fill-rule:nonzero;fill:rgb(100%,70.896912%,0.784302%);fill-opacity:1;" d="M 407.824219 53.984375 L 410.085938 54.820313 C 410.085938 54.820313 410.644531 53.328125 411.113281 51.898438 C 411.609375 50.453125 412.09375 49.015625 412.09375 49.015625 L 409.914063 47.941406 C 409.914063 47.941406 409.394531 49.460938 408.867188 50.988281 C 408.359375 52.535156 407.824219 53.984375 407.824219 53.984375 "/>
<path style=" stroke:none;fill-rule:nonzero;fill:rgb(100%,70.896912%,0.784302%);fill-opacity:1;" d="M 404.046875 62.226563 L 406.09375 63.496094 C 406.09375 63.496094 406.9375 62.097656 407.660156 60.652344 C 408.328125 59.183594 408.976563 57.726563 408.976563 57.726563 L 406.746094 56.804688 C 406.746094 56.804688 406.121094 58.207031 405.503906 59.589844 C 404.816406 60.941406 404.046875 62.226563 404.046875 62.226563 "/>
<path style=" stroke:none;fill-rule:nonzero;fill:rgb(100%,70.896912%,0.784302%);fill-opacity:1;" d="M 398.070313 68.558594 L 399.421875 70.582031 C 399.625 70.84375 404.523438 66.328125 404.265625 66.117188 L 402.359375 64.609375 C 402.578125 64.820313 398.253906 68.816406 398.070313 68.558594 "/>
<path style=" stroke:none;fill-rule:nonzero;fill:rgb(100%,70.896912%,0.784302%);fill-opacity:1;" d="M 389.90625 71.632813 L 390.316406 74.015625 C 390.316406 74.015625 391.90625 73.679688 393.511719 73.355469 C 395.058594 72.796875 396.59375 72.167969 396.59375 72.167969 L 395.578125 69.972656 C 395.578125 69.972656 394.21875 70.503906 392.839844 71.035156 C 391.367188 71.328125 389.90625 71.632813 389.90625 71.632813 "/>
<path style=" stroke:none;fill-rule:nonzero;fill:rgb(100%,70.896912%,0.784302%);fill-opacity:1;" d="M 380.90625 71.929688 L 380.757813 74.34375 C 380.757813 74.34375 382.347656 74.4375 383.941406 74.53125 C 385.550781 74.445313 387.164063 74.363281 387.164063 74.363281 L 386.984375 71.953125 C 386.984375 71.953125 385.472656 72.042969 383.960938 72.117188 C 382.4375 72.023438 380.90625 71.929688 380.90625 71.929688 "/>
<path style=" stroke:none;fill-rule:nonzero;fill:rgb(14.892578%,30.200195%,52.539063%);fill-opacity:1;" d="M 467.183594 255.261719 C 467.183594 261.0625 462.242188 265.765625 456.15625 265.765625 L 204.683594 265.765625 C 198.597656 265.765625 193.65625 261.0625 193.65625 255.261719 L 193.65625 103.566406 C 193.65625 97.753906 198.597656 93.046875 204.683594 93.046875 L 456.15625 93.046875 C 462.242188 93.046875 467.183594 97.753906 467.183594 103.566406 L 467.183594 255.261719 "/>
<path style=" stroke:none;fill-rule:nonzero;fill:rgb(80.076599%,86.71875%,98.826599%);fill-opacity:1;" d="M 453.152344 256.957031 L 206.933594 256.957031 L 206.933594 111.894531 L 453.152344 111.894531 L 453.152344 256.957031 "/>
<path style=" stroke:none;fill-rule:nonzero;fill:rgb(14.892578%,30.200195%,52.539063%);fill-opacity:1;" d="M 493.28125 274.59375 L 164.683594 274.59375 L 164.683594 256.957031 L 493.28125 256.957031 L 493.28125 274.59375 "/>
<path style=" stroke:none;fill-rule:nonzero;fill:rgb(10.594177%,12.547302%,26.660156%);fill-opacity:1;" d="M 99.980469 20.304688 L 99.726563 18.550781 C 99.703125 18.441406 94.980469 19.46875 94.964844 19.578125 L 95.5 21.257813 C 95.4375 21.179688 99.964844 20.195313 99.980469 20.304688 "/>
<path style=" stroke:none;fill-rule:nonzero;fill:rgb(10.594177%,12.547302%,26.660156%);fill-opacity:1;" d="M 106.804688 20.035156 L 106.957031 18.277344 C 106.953125 18.179688 102.078125 18.152344 102.085938 18.292969 L 102.222656 20.046875 C 102.222656 19.921875 106.820313 19.953125 106.804688 20.035156 "/>
<path style=" stroke:none;fill-rule:nonzero;fill:rgb(10.594177%,12.547302%,26.660156%);fill-opacity:1;" d="M 113.292969 21.679688 L 114.039063 20.074219 C 114.105469 19.886719 109.363281 18.398438 109.328125 18.597656 L 109.015625 20.328125 C 109.066406 20.160156 113.371094 21.507813 113.292969 21.679688 "/>
<path style=" stroke:none;fill-rule:nonzero;fill:rgb(10.594177%,12.547302%,26.660156%);fill-opacity:1;" d="M 118.421875 25.730469 L 119.832031 24.65625 C 119.878906 24.617188 119.027344 23.703125 118.128906 22.816406 C 117.296875 21.867188 116.132813 21.3125 116.175781 21.265625 L 115.191406 22.738281 C 115.148438 22.785156 116.1875 23.261719 116.925781 24.109375 C 117.710938 24.894531 118.476563 25.6875 118.421875 25.730469 "/>
<path style=" stroke:none;fill-rule:nonzero;fill:rgb(10.594177%,12.547302%,26.660156%);fill-opacity:1;" d="M 121.234375 31.816406 L 122.914063 31.253906 C 123.140625 31.269531 121.269531 26.65625 121.167969 26.707031 L 119.621094 27.554688 C 119.703125 27.507813 121.40625 31.683594 121.234375 31.816406 "/>
<path style=" stroke:none;fill-rule:nonzero;fill:rgb(10.594177%,12.547302%,26.660156%);fill-opacity:1;" d="M 122.972656 38.84375 L 124.519531 37.917969 C 124.519531 37.917969 124.402344 37.65625 124.277344 37.246094 C 124.179688 36.835938 124.058594 36.277344 123.929688 35.722656 C 123.683594 34.605469 123.425781 33.484375 123.425781 33.484375 L 121.757813 34.105469 C 121.757813 34.105469 122.039063 35.300781 122.3125 36.488281 C 122.449219 37.085938 122.59375 37.683594 122.703125 38.128906 C 122.839844 38.566406 122.972656 38.84375 122.972656 38.84375 "/>
<path style=" stroke:none;fill-rule:nonzero;fill:rgb(10.594177%,12.547302%,26.660156%);fill-opacity:1;" d="M 126.667969 45.0625 L 127.921875 43.726563 C 127.972656 43.6875 127.039063 42.980469 126.507813 41.949219 C 125.886719 40.984375 125.300781 40.019531 125.34375 39.992188 L 123.875 41.0625 C 123.808594 41.097656 124.460938 42.136719 125.132813 43.160156 C 125.707031 44.265625 126.710938 45.023438 126.667969 45.0625 "/>
<path style=" stroke:none;fill-rule:nonzero;fill:rgb(10.594177%,12.547302%,26.660156%);fill-opacity:1;" d="M 132.726563 48.980469 L 133.570313 47.359375 C 133.558594 47.402344 132.511719 46.960938 131.488281 46.445313 C 130.4375 45.992188 129.601563 45.167969 129.582031 45.21875 L 128.445313 46.660156 C 128.464844 46.613281 129.363281 47.492188 130.484375 47.980469 C 131.589844 48.539063 132.714844 49.03125 132.726563 48.980469 "/>
<path style=" stroke:none;fill-rule:nonzero;fill:rgb(10.594177%,12.547302%,26.660156%);fill-opacity:1;" d="M 139.882813 50.316406 L 140.234375 48.5625 C 140.234375 48.5625 139.101563 48.472656 137.964844 48.382813 C 136.84375 48.183594 135.726563 47.984375 135.726563 47.984375 L 135.023438 49.667969 C 135.023438 49.667969 136.226563 49.898438 137.433594 50.109375 C 138.660156 50.21875 139.882813 50.316406 139.882813 50.316406 "/>
<path style=" stroke:none;fill-rule:nonzero;fill:rgb(10.594177%,12.547302%,26.660156%);fill-opacity:1;" d="M 147.175781 50.105469 L 147.042969 48.34375 C 147.042969 48.34375 145.882813 48.472656 144.753906 48.523438 C 143.617188 48.605469 142.464844 48.601563 142.464844 48.601563 L 142.285156 50.367188 C 142.285156 50.367188 143.511719 50.371094 144.738281 50.289063 C 145.980469 50.238281 147.175781 50.105469 147.175781 50.105469 "/>
<path style=" stroke:none;fill-rule:nonzero;fill:rgb(10.594177%,12.547302%,26.660156%);fill-opacity:1;" d="M 154.214844 49.335938 L 154.035156 47.574219 L 149.316406 48.121094 L 149.523438 49.871094 L 154.214844 49.335938 "/>
<path style=" stroke:none;fill-rule:nonzero;fill:rgb(10.594177%,12.547302%,26.660156%);fill-opacity:1;" d="M 160.53125 50.09375 L 161.382813 48.539063 C 161.382813 48.539063 160.261719 47.878906 158.992188 47.59375 C 158.355469 47.445313 157.710938 47.339844 157.148438 47.347656 C 156.691406 47.363281 156.390625 47.382813 156.390625 47.382813 L 156.472656 49.152344 C 156.472656 49.152344 156.753906 49.128906 157.1875 49.109375 C 157.515625 49.101563 158.03125 49.183594 158.558594 49.304688 C 159.605469 49.539063 160.53125 50.09375 160.53125 50.09375 "/>
<path style=" stroke:none;fill-rule:nonzero;fill:rgb(10.594177%,12.547302%,26.660156%);fill-opacity:1;" d="M 164.507813 54.941406 L 166.164063 54.316406 C 166.164063 54.316406 166.035156 54.027344 165.855469 53.597656 C 165.691406 53.144531 165.390625 52.582031 165.039063 52.046875 C 164.378906 50.9375 163.429688 50.042969 163.429688 50.042969 L 162.199219 51.328125 C 162.199219 51.328125 162.992188 52.050781 163.542969 52.992188 C 164.164063 53.871094 164.476563 54.96875 164.507813 54.941406 "/>
<path style=" stroke:none;fill-rule:nonzero;fill:rgb(10.594177%,12.547302%,26.660156%);fill-opacity:1;" d="M 165.472656 61.546875 L 167.238281 61.5625 C 167.238281 61.5625 167.277344 61.265625 167.238281 60.808594 C 167.214844 60.351563 167.1875 59.730469 167.160156 59.117188 C 167.160156 58.511719 167.007813 57.902344 166.949219 57.441406 C 166.871094 56.980469 166.828125 56.675781 166.828125 56.675781 L 165.097656 57.03125 C 165.097656 57.03125 165.140625 57.308594 165.210938 57.726563 C 165.261719 58.148438 165.402344 58.6875 165.402344 59.261719 C 165.4375 59.832031 165.460938 60.402344 165.472656 60.828125 C 165.511719 61.257813 165.472656 61.546875 165.472656 61.546875 "/>
<path style=" stroke:none;fill-rule:nonzero;fill:rgb(96.09375%,96.09375%,100%);fill-opacity:1;" d="M 408.003906 250.730469 L 255.464844 250.730469 L 255.464844 1.195313 L 408.003906 1.195313 L 408.003906 250.730469 "/>
<path style=" stroke:none;fill-rule:nonzero;fill:rgb(27.43988%,55.271912%,96.09375%);fill-opacity:1;" d="M 408.003906 26.523438 L 255.464844 26.523438 L 255.464844 1.195313 L 408.003906 1.195313 L 408.003906 26.523438 "/>
<path style=" stroke:none;fill-rule:nonzero;fill:rgb(100%,100%,100%);fill-opacity:1;" d="M 388.191406 72.351563 C 388.191406 79.351563 382.523438 85.019531 375.519531 85.019531 L 286.460938 85.019531 C 279.46875 85.019531 273.804688 79.351563 273.804688 72.351563 C 273.804688 65.371094 279.46875 59.703125 286.460938 59.703125 L 375.519531 59.703125 C 382.523438 59.703125 388.191406 65.371094 388.191406 72.351563 "/>
<path style=" stroke:none;fill-rule:nonzero;fill:rgb(100%,100%,100%);fill-opacity:1;" d="M 388.191406 116.886719 C 388.191406 123.882813 382.523438 129.554688 375.519531 129.554688 L 286.460938 129.554688 C 279.46875 129.554688 273.804688 123.882813 273.804688 116.886719 C 273.804688 109.894531 279.46875 104.226563 286.460938 104.226563 L 375.519531 104.226563 C 382.523438 104.226563 388.191406 109.894531 388.191406 116.886719 "/>
<path style=" stroke:none;fill-rule:nonzero;fill:rgb(100%,70.896912%,0.784302%);fill-opacity:1;" d="M 363.734375 155.3125 C 363.734375 161.347656 358.847656 166.222656 352.820313 166.222656 L 309.15625 166.222656 C 303.132813 166.222656 298.246094 161.347656 298.246094 155.3125 C 298.246094 149.277344 303.132813 144.398438 309.15625 144.398438 L 352.820313 144.398438 C 358.847656 144.398438 363.734375 149.277344 363.734375 155.3125 "/>
<path style=" stroke:none;fill-rule:nonzero;fill:rgb(100%,70.896912%,0.784302%);fill-opacity:1;" d="M 388.191406 42.675781 C 388.191406 45.328125 386.039063 47.480469 383.378906 47.480469 L 278.605469 47.480469 C 275.949219 47.480469 273.804688 45.328125 273.804688 42.675781 C 273.804688 40.015625 275.949219 37.871094 278.605469 37.871094 L 383.378906 37.871094 C 386.039063 37.871094 388.191406 40.015625 388.191406 42.675781 "/>
<path style=" stroke:none;fill-rule:nonzero;fill:rgb(100%,100%,100%);fill-opacity:1;" d="M 284.277344 9.929688 L 261.570313 9.929688 L 261.570313 7.308594 L 284.277344 7.308594 L 284.277344 9.929688 "/>
<path style=" stroke:none;fill-rule:nonzero;fill:rgb(100%,100%,100%);fill-opacity:1;" d="M 284.277344 15.164063 L 261.570313 15.164063 L 261.570313 12.550781 L 284.277344 12.550781 L 284.277344 15.164063 "/>
<path style=" stroke:none;fill-rule:nonzero;fill:rgb(100%,100%,100%);fill-opacity:1;" d="M 284.277344 20.40625 L 261.570313 20.40625 L 261.570313 17.785156 L 284.277344 17.785156 L 284.277344 20.40625 "/>
<path style=" stroke:none;fill-rule:nonzero;fill:rgb(100%,13.719177%,38.818359%);fill-opacity:1;" d="M 290.644531 121.589844 C 290.644531 123.34375 289.21875 124.765625 287.464844 124.765625 C 285.703125 124.765625 284.277344 123.34375 284.277344 121.589844 C 284.277344 119.828125 285.703125 118.402344 287.464844 118.402344 C 289.21875 118.402344 290.644531 119.828125 290.644531 121.589844 "/>
<path style=" stroke:none;fill-rule:nonzero;fill:rgb(100%,13.719177%,38.818359%);fill-opacity:1;" d="M 300.476563 121.589844 C 300.476563 123.34375 299.050781 124.765625 297.292969 124.765625 C 295.53125 124.765625 294.105469 123.34375 294.105469 121.589844 C 294.105469 119.828125 295.53125 118.402344 297.292969 118.402344 C 299.050781 118.402344 300.476563 119.828125 300.476563 121.589844 "/>
<path style=" stroke:none;fill-rule:nonzero;fill:rgb(100%,13.719177%,38.818359%);fill-opacity:1;" d="M 310.304688 121.589844 C 310.304688 123.34375 308.882813 124.765625 307.128906 124.765625 C 305.363281 124.765625 303.9375 123.34375 303.9375 121.589844 C 303.9375 119.828125 305.363281 118.402344 307.128906 118.402344 C 308.882813 118.402344 310.304688 119.828125 310.304688 121.589844 "/>
<path style=" stroke:none;fill-rule:nonzero;fill:rgb(100%,13.719177%,38.818359%);fill-opacity:1;" d="M 320.140625 121.589844 C 320.140625 123.34375 318.710938 124.765625 316.949219 124.765625 C 315.1875 124.765625 313.757813 123.34375 313.757813 121.589844 C 313.757813 119.828125 315.1875 118.402344 316.949219 118.402344 C 318.710938 118.402344 320.140625 119.828125 320.140625 121.589844 "/>
<path style=" stroke:none;fill-rule:nonzero;fill:rgb(100%,13.719177%,38.818359%);fill-opacity:1;" d="M 329.964844 121.589844 C 329.964844 123.34375 328.539063 124.765625 326.777344 124.765625 C 325.019531 124.765625 323.59375 123.34375 323.59375 121.589844 C 323.59375 119.828125 325.019531 118.402344 326.777344 118.402344 C 328.539063 118.402344 329.964844 119.828125 329.964844 121.589844 "/>
<path style=" stroke:none;fill-rule:nonzero;fill:rgb(100%,13.719177%,38.818359%);fill-opacity:1;" d="M 339.789063 121.589844 C 339.789063 123.34375 338.359375 124.765625 336.609375 124.765625 C 334.847656 124.765625 333.425781 123.34375 333.425781 121.589844 C 333.425781 119.828125 334.847656 118.402344 336.609375 118.402344 C 338.359375 118.402344 339.789063 119.828125 339.789063 121.589844 "/>
<path style=" stroke:none;fill-rule:nonzero;fill:rgb(100%,81.25%,1.177979%);fill-opacity:1;" d="M 495.730469 74.171875 C 495.730469 58.976563 478.601563 46.652344 457.476563 46.652344 C 436.347656 46.652344 416.8125 63.660156 416.8125 78.855469 C 416.8125 93.765625 435.710938 101.214844 456.289063 101.667969 C 455.699219 110.15625 444.25 114.179688 444.25 114.179688 C 467.273438 116.390625 495.730469 98.730469 495.730469 74.171875 "/>
<path style=" stroke:none;fill-rule:nonzero;fill:rgb(100%,100%,100%);fill-opacity:1;" d="M 446.734375 66.886719 C 446.734375 65.929688 446.703125 65.109375 446.671875 64.429688 L 448.757813 64.429688 L 448.867188 65.484375 L 448.914063 65.484375 C 449.230469 64.996094 450.015625 64.253906 451.296875 64.253906 C 452.878906 64.253906 454.058594 65.296875 454.058594 67.566406 L 454.058594 72.144531 L 451.65625 72.144531 L 451.65625 67.867188 C 451.65625 66.871094 451.3125 66.195313 450.449219 66.195313 C 449.78125 66.195313 449.386719 66.652344 449.230469 67.09375 C 449.164063 67.238281 449.132813 67.472656 449.132813 67.695313 L 449.132813 72.144531 L 446.734375 72.144531 L 446.734375 66.886719 "/>
<path style=" stroke:none;fill-rule:nonzero;fill:rgb(100%,100%,100%);fill-opacity:1;" d="M 457.917969 68.277344 C 457.917969 69.601563 458.460938 70.597656 459.492188 70.597656 C 460.417969 70.597656 461.015625 69.667969 461.015625 68.277344 C 461.015625 67.125 460.574219 65.960938 459.492188 65.960938 C 458.335938 65.960938 457.917969 67.144531 457.917969 68.277344 Z M 463.492188 68.199219 C 463.492188 71.023438 461.496094 72.320313 459.429688 72.320313 C 457.171875 72.320313 455.433594 70.835938 455.433594 68.34375 C 455.433594 65.847656 457.078125 64.253906 459.554688 64.253906 C 461.921875 64.253906 463.492188 65.882813 463.492188 68.199219 "/>
<path style=" stroke:none;fill-rule:nonzero;fill:rgb(100%,100%,100%);fill-opacity:1;" d="M 467.550781 62.21875 L 467.550781 64.429688 L 469.273438 64.429688 L 469.273438 66.195313 L 467.550781 66.195313 L 467.550781 68.988281 C 467.550781 69.917969 467.777344 70.34375 468.503906 70.34375 C 468.800781 70.34375 469.035156 70.3125 469.210938 70.285156 L 469.226563 72.097656 C 468.910156 72.222656 468.347656 72.300781 467.660156 72.300781 C 466.890625 72.300781 466.246094 72.035156 465.859375 71.640625 C 465.421875 71.183594 465.199219 70.441406 465.199219 69.351563 L 465.199219 66.195313 L 464.179688 66.195313 L 464.179688 64.429688 L 465.199219 64.429688 L 465.199219 62.757813 L 467.550781 62.21875 "/>
<path style=" stroke:none;fill-rule:nonzero;fill:rgb(100%,100%,100%);fill-opacity:1;" d="M 438.097656 83.980469 L 438.097656 78.035156 L 437.082031 78.035156 L 437.082031 76.265625 L 438.097656 76.265625 L 438.097656 75.96875 C 438.097656 75.035156 438.378906 74.015625 439.070313 73.378906 C 439.675781 72.808594 440.507813 72.609375 441.199219 72.609375 C 441.742188 72.609375 442.152344 72.667969 442.480469 72.765625 L 442.390625 74.609375 C 442.183594 74.550781 441.933594 74.503906 441.617188 74.503906 C 440.820313 74.503906 440.492188 75.117188 440.492188 75.871094 L 440.492188 76.265625 L 442.042969 76.265625 L 442.042969 78.035156 L 440.507813 78.035156 L 440.507813 83.980469 L 438.097656 83.980469 "/>
<path style=" stroke:none;fill-rule:nonzero;fill:rgb(100%,100%,100%);fill-opacity:1;" d="M 444.976563 80.117188 C 444.976563 81.445313 445.523438 82.4375 446.554688 82.4375 C 447.480469 82.4375 448.089844 81.507813 448.089844 80.117188 C 448.089844 78.964844 447.640625 77.796875 446.554688 77.796875 C 445.398438 77.796875 444.976563 78.984375 444.976563 80.117188 Z M 450.566406 80.039063 C 450.566406 82.863281 448.5625 84.160156 446.492188 84.160156 C 444.234375 84.160156 442.496094 82.675781 442.496094 80.183594 C 442.496094 77.6875 444.140625 76.09375 446.617188 76.09375 C 448.984375 76.09375 450.566406 77.71875 450.566406 80.039063 "/>
<path style=" stroke:none;fill-rule:nonzero;fill:rgb(100%,100%,100%);fill-opacity:1;" d="M 459.214844 81.507813 C 459.214844 82.515625 459.246094 83.335938 459.277344 83.980469 L 457.191406 83.980469 L 457.085938 82.894531 L 457.035156 82.894531 C 456.730469 83.367188 456.007813 84.160156 454.613281 84.160156 C 453.058594 84.160156 451.902344 83.179688 451.902344 80.796875 L 451.902344 76.265625 L 454.316406 76.265625 L 454.316406 80.417969 C 454.316406 81.539063 454.6875 82.214844 455.519531 82.214844 C 456.179688 82.214844 456.558594 81.757813 456.714844 81.378906 C 456.777344 81.234375 456.792969 81.050781 456.792969 80.855469 L 456.792969 76.265625 L 459.214844 76.265625 L 459.214844 81.507813 "/>
<path style=" stroke:none;fill-rule:nonzero;fill:rgb(100%,100%,100%);fill-opacity:1;" d="M 461.023438 78.726563 C 461.023438 77.765625 460.992188 76.945313 460.96875 76.265625 L 463.042969 76.265625 L 463.15625 77.324219 L 463.203125 77.324219 C 463.523438 76.835938 464.3125 76.09375 465.59375 76.09375 C 467.164063 76.09375 468.355469 77.136719 468.355469 79.40625 L 468.355469 83.980469 L 465.953125 83.980469 L 465.953125 79.707031 C 465.953125 78.710938 465.609375 78.035156 464.742188 78.035156 C 464.074219 78.035156 463.683594 78.492188 463.523438 78.933594 C 463.460938 79.078125 463.429688 79.3125 463.429688 79.53125 L 463.429688 83.980469 L 461.023438 83.980469 L 461.023438 78.726563 "/>
<path style=" stroke:none;fill-rule:nonzero;fill:rgb(100%,100%,100%);fill-opacity:1;" d="M 475.25 79.53125 C 475.25 79.40625 475.234375 79.234375 475.21875 79.109375 C 475.078125 78.460938 474.558594 77.925781 473.816406 77.925781 C 472.726563 77.925781 472.160156 78.902344 472.160156 80.117188 C 472.160156 81.425781 472.804688 82.246094 473.804688 82.246094 C 474.492188 82.246094 475.046875 81.773438 475.1875 81.097656 C 475.234375 80.921875 475.25 80.746094 475.25 80.546875 Z M 477.648438 72.78125 L 477.648438 81.679688 C 477.648438 82.546875 477.679688 83.464844 477.710938 83.980469 L 475.578125 83.980469 L 475.476563 82.847656 L 475.445313 82.847656 C 474.949219 83.71875 474.015625 84.160156 473.023438 84.160156 C 471.199219 84.160156 469.730469 82.597656 469.730469 80.195313 C 469.714844 77.59375 471.339844 76.09375 473.183594 76.09375 C 474.125 76.09375 474.871094 76.425781 475.21875 76.960938 L 475.25 76.960938 L 475.25 72.78125 L 477.648438 72.78125 "/>
<path style=" stroke:none;fill-rule:nonzero;fill:rgb(10.594177%,12.547302%,26.660156%);fill-opacity:1;" d="M 599.144531 215.375 C 599.117188 213.558594 597.617188 212.09375 595.800781 212.113281 C 593.976563 212.140625 592.511719 213.644531 592.535156 215.460938 C 592.558594 217.28125 594.0625 218.746094 595.886719 218.714844 C 597.703125 218.695313 599.164063 217.199219 599.144531 215.375 Z M 591.285156 215.476563 C 591.246094 212.964844 593.273438 210.894531 595.785156 210.867188 C 598.285156 210.828125 600.367188 212.84375 600.394531 215.359375 C 600.425781 217.871094 598.40625 219.945313 595.898438 219.976563 C 593.386719 220.011719 591.320313 217.988281 591.285156 215.476563 "/>
<path style=" stroke:none;fill-rule:nonzero;fill:rgb(100%,70.896912%,0.784302%);fill-opacity:1;" d="M 597.0625 163.859375 L 597.914063 164.78125 L 594.007813 168.390625 C 592.851563 169.464844 592.769531 171.296875 593.839844 172.460938 L 596.710938 175.59375 C 597.457031 176.414063 597.839844 177.46875 597.792969 178.574219 C 597.738281 179.679688 597.257813 180.699219 596.445313 181.445313 L 593.835938 183.816406 C 593.265625 184.347656 592.925781 185.0625 592.898438 185.839844 C 592.863281 186.621094 593.144531 187.359375 593.679688 187.929688 L 596.269531 190.679688 C 597.058594 191.519531 597.457031 192.625 597.386719 193.773438 C 597.3125 194.917969 596.769531 195.984375 595.886719 196.707031 L 594.105469 198.167969 C 593.460938 198.710938 593.070313 199.496094 593.058594 200.332031 C 593.039063 201.183594 593.394531 201.988281 594.019531 202.550781 L 597.75 205.882813 L 596.914063 206.816406 L 593.183594 203.484375 C 592.28125 202.679688 591.78125 201.519531 591.800781 200.308594 C 591.835938 199.101563 592.382813 197.972656 593.3125 197.210938 L 595.089844 195.738281 C 595.707031 195.230469 596.082031 194.5 596.132813 193.695313 C 596.1875 192.890625 595.90625 192.113281 595.359375 191.53125 L 592.769531 188.78125 C 592 187.976563 591.601563 186.90625 591.648438 185.792969 C 591.695313 184.671875 592.171875 183.652344 592.992188 182.890625 L 595.601563 180.519531 C 596.167969 179.996094 596.503906 179.289063 596.535156 178.523438 C 596.566406 177.75 596.308594 177.011719 595.785156 176.441406 L 592.917969 173.300781 C 591.386719 171.628906 591.5 169.015625 593.160156 167.472656 L 597.0625 163.859375 "/>
<path style=" stroke:none;fill-rule:nonzero;fill:rgb(98.4375%,77.734375%,70.506287%);fill-opacity:1;" d="M 443.238281 252.953125 C 445.171875 250.75 445.09375 250.414063 444.554688 249.707031 C 444.097656 249.09375 443.554688 248.515625 442.945313 247.933594 L 447.210938 245.335938 C 448.074219 246.898438 448.730469 248.308594 449.046875 249.46875 C 448.730469 249.875 446.21875 253.167969 443.238281 252.953125 "/>
<path style=" stroke:none;fill-rule:nonzero;fill:rgb(10.594177%,25.488281%,42.747498%);fill-opacity:1;" d="M 449.046875 249.46875 C 449.050781 249.425781 449.089844 249.386719 449.089844 249.386719 C 451.503906 252.988281 445.988281 255.128906 442.75 255.597656 C 439.511719 256.0625 443.238281 252.953125 443.238281 252.953125 C 446.21875 253.167969 448.730469 249.875 449.046875 249.46875 "/>
<path style=" stroke:none;fill-rule:nonzero;fill:rgb(100%,70.896912%,0.784302%);fill-opacity:1;" d="M 448.511719 244.550781 C 449.089844 246.625 444.472656 249.945313 443.175781 248.847656 C 432.035156 239.382813 420.117188 218.78125 415.675781 210.355469 C 415.472656 209.980469 415.277344 209.636719 415.097656 209.3125 C 412.878906 205.679688 411.605469 206.433594 404.070313 189.609375 C 401.621094 184.179688 400.144531 174.660156 400.144531 174.660156 L 407.625 171.570313 L 424.828125 164.335938 C 430.800781 170.019531 432.816406 186.460938 434.113281 193.121094 C 435.179688 198.753906 436.421875 207.847656 437.601563 212.230469 C 441.761719 227.523438 444.757813 230.636719 448.511719 244.550781 "/>
<path style=" stroke:none;fill-rule:nonzero;fill:rgb(98.4375%,77.734375%,70.506287%);fill-opacity:1;" d="M 399.632813 257.074219 C 402.332031 255.882813 402.386719 255.535156 402.207031 254.671875 C 402.035156 253.945313 401.777344 253.167969 401.492188 252.398438 L 406.4375 251.816406 C 406.5625 253.585938 406.5625 255.132813 406.367188 256.347656 C 405.917969 256.574219 402.261719 258.515625 399.632813 257.074219 "/>
<path style=" stroke:none;fill-rule:nonzero;fill:rgb(10.594177%,25.488281%,42.747498%);fill-opacity:1;" d="M 406.367188 256.347656 C 406.40625 256.304688 406.453125 256.273438 406.453125 256.273438 C 407.144531 260.578125 401.238281 260.203125 398.105469 259.273438 C 394.953125 258.34375 399.632813 257.074219 399.632813 257.074219 C 402.261719 258.515625 405.917969 256.574219 406.367188 256.347656 "/>
<path style=" stroke:none;fill-rule:nonzero;fill:rgb(100%,81.25%,1.177979%);fill-opacity:1;" d="M 416.304688 198.894531 C 414.921875 204.46875 411.832031 210.210938 411.832031 218.027344 C 411.832031 233.933594 410.339844 237.453125 407.972656 251.648438 C 407.703125 253.292969 404.21875 254.332031 402.339844 253.953125 C 402.054688 253.890625 401.800781 253.8125 401.621094 253.671875 C 401.441406 253.582031 401.328125 253.46875 401.273438 253.320313 C 395.128906 240.082031 391.003906 217.539063 390.453125 208.046875 C 390.132813 202.445313 390.277344 203.140625 390.484375 183.167969 C 390.539063 177.191406 393.140625 167.9375 393.140625 167.9375 L 417.957031 168.738281 C 421.007813 176.417969 417.898438 192.316406 416.304688 198.894531 "/>
<path style=" stroke:none;fill-rule:nonzero;fill:rgb(100%,100%,100%);fill-opacity:1;" d="M 402.339844 253.953125 C 402.054688 253.890625 401.800781 253.8125 401.621094 253.671875 C 397.867188 243.195313 396.253906 232.050781 394.871094 222.414063 C 393.683594 214.246094 392.363281 204.957031 392.324219 195.839844 C 392.300781 185.855469 393.910156 177.058594 397.117188 169.667969 C 397.179688 169.515625 397.347656 169.460938 397.496094 169.515625 C 397.640625 169.578125 397.726563 169.753906 397.660156 169.902344 C 394.484375 177.191406 392.878906 185.945313 392.910156 195.839844 C 392.9375 204.933594 394.257813 214.1875 395.445313 222.363281 C 396.859375 232.085938 398.503906 243.398438 402.339844 253.953125 "/>
<path style=" stroke:none;fill-rule:nonzero;fill:rgb(98.4375%,77.734375%,70.506287%);fill-opacity:1;" d="M 383.917969 108.773438 C 383.917969 108.773438 382.28125 104.660156 378.75 103.558594 C 375.582031 102.574219 377.675781 106.539063 380.976563 110.652344 L 383.917969 108.773438 "/>
<path style=" stroke:none;fill-rule:nonzero;fill:rgb(76.951599%,4.704285%,32.542419%);fill-opacity:1;" d="M 419.757813 130.652344 C 422.335938 132.085938 422.472656 134.675781 419.925781 137.765625 C 416.015625 142.507813 411.140625 139.660156 401.8125 135.484375 C 391.214844 130.738281 380.378906 110.257813 380.378906 110.257813 C 380.378906 110.257813 380.90625 107.585938 383.546875 108.007813 C 383.546875 108.007813 391.738281 118.875 402.203125 123.695313 C 407.34375 126.070313 414.34375 127.625 419.757813 130.652344 "/>
<path style=" stroke:none;fill-rule:nonzero;fill:rgb(100%,13.719177%,38.818359%);fill-opacity:1;" d="M 403.140625 127.996094 C 398.339844 131.660156 394.25 140.59375 392.339844 169.824219 C 391.921875 176.246094 429.195313 177.796875 429.335938 171.351563 C 429.664063 154.203125 426.734375 147.15625 421.835938 131.691406 C 420.484375 127.496094 412.636719 120.675781 403.140625 127.996094 "/>
<path style=" stroke:none;fill-rule:nonzero;fill:rgb(98.4375%,77.734375%,70.506287%);fill-opacity:1;" d="M 369.464844 115.613281 C 369.464844 115.613281 370.730469 106.238281 368.566406 108.765625 C 366.40625 111.28125 364.109375 111.6875 366.105469 116.578125 L 369.464844 115.613281 "/>
<path style=" stroke:none;fill-rule:nonzero;fill:rgb(76.951599%,4.704285%,32.542419%);fill-opacity:1;" d="M 405.867188 131.355469 C 409.683594 136.671875 407.214844 140.8125 403.890625 143.050781 C 398.796875 146.484375 389.707031 150.835938 379.023438 146.308594 C 368.324219 141.785156 365.648438 116.023438 365.648438 116.023438 C 365.648438 116.023438 366.914063 113.613281 369.324219 114.773438 C 369.324219 114.773438 374.933594 134.097656 385.191406 135.90625 C 390.152344 136.78125 402.238281 126.3125 405.867188 131.355469 "/>
<path style=" stroke:none;fill-rule:nonzero;fill:rgb(93.359375%,61.521912%,49.804688%);fill-opacity:1;" d="M 413.152344 120.589844 C 413.152344 120.589844 414.90625 127.996094 413.460938 129.730469 C 412.007813 131.472656 404.285156 129.707031 404.652344 126.941406 C 405.132813 123.265625 406.113281 120.148438 406.113281 120.148438 L 413.152344 120.589844 "/>
<path style=" stroke:none;fill-rule:nonzero;fill:rgb(98.4375%,77.734375%,70.506287%);fill-opacity:1;" d="M 417.484375 112.953125 C 417.484375 119.476563 413.835938 124.765625 409.339844 124.765625 C 407.316406 124.765625 402.828125 125.320313 401.40625 123.5625 C 399.65625 121.394531 399.644531 115.84375 400.652344 112.390625 C 402.96875 104.421875 406.347656 101.796875 410.847656 101.796875 C 415.34375 101.796875 417.484375 106.4375 417.484375 112.953125 "/>
<path style=" stroke:none;fill-rule:nonzero;fill:rgb(10.594177%,12.547302%,26.660156%);fill-opacity:1;" d="M 409.78125 125.515625 C 412.601563 125.671875 417.335938 124.6875 419.957031 118.882813 C 422.347656 113.574219 420.96875 104.730469 415.617188 102.019531 C 412.445313 100.40625 408.117188 100.140625 404.636719 101.796875 C 399.714844 104.140625 400.351563 107.128906 401.347656 107.621094 C 403.417969 108.640625 405.046875 107.019531 404.636719 109.847656 C 404.320313 112.035156 404.488281 116.847656 406.515625 117.136719 C 408.546875 117.429688 410.269531 117.441406 409.78125 120.378906 C 409.410156 122.605469 406.925781 125.371094 409.78125 125.515625 "/>
<path style=" stroke:none;fill-rule:nonzero;fill:rgb(10.594177%,12.547302%,26.660156%);fill-opacity:1;" d="M 393.660156 171.886719 C 393.660156 171.886719 422.707031 179.347656 429.335938 171.351563 L 430.871094 176.988281 C 430.871094 176.988281 413.042969 183.761719 393.660156 171.886719 "/>
<path style=" stroke:none;fill-rule:nonzero;fill:rgb(98.4375%,77.734375%,70.506287%);fill-opacity:1;" d="M 514.15625 249.332031 C 518.296875 257.1875 525.917969 266.796875 527.839844 272.476563 C 528.144531 273.382813 528.121094 273.753906 525.367188 275.339844 C 522.609375 276.917969 525.863281 277.972656 530.960938 276.691406 C 536.054688 275.410156 527.394531 251.523438 522.140625 240.609375 C 517.554688 231.070313 509.355469 240.207031 514.15625 249.332031 "/>
<path style=" stroke:none;fill-rule:nonzero;fill:rgb(10.594177%,25.488281%,42.747498%);fill-opacity:1;" d="M 532.578125 273.722656 C 532.578125 273.722656 528.550781 276.679688 525.367188 275.339844 C 525.367188 275.339844 520.503906 277.222656 523.964844 277.855469 C 527.433594 278.480469 533.78125 278.234375 532.578125 273.722656 "/>
<path style=" stroke:none;fill-rule:nonzero;fill:rgb(100%,70.896912%,0.784302%);fill-opacity:1;" d="M 537.046875 215.085938 C 537.046875 215.085938 510.023438 216.507813 503.875 222.503906 C 497.734375 228.503906 524.867188 271.453125 524.867188 271.453125 C 524.867188 271.453125 531.75 269.246094 531.765625 264.03125 C 531.835938 244.480469 531.492188 238.027344 531.492188 238.027344 L 559.039063 231.84375 L 537.046875 215.085938 "/>
<path style=" stroke:none;fill-rule:nonzero;fill:rgb(98.4375%,77.734375%,70.506287%);fill-opacity:1;" d="M 571.609375 265.800781 C 580.878906 264.660156 593.175781 260.730469 599.46875 260.957031 C 600.464844 260.992188 600.828125 261.15625 601.363281 264.453125 C 601.882813 267.757813 604.132813 264.9375 604.769531 259.453125 C 605.398438 253.964844 578.691406 253.605469 566.003906 254.710938 C 554.90625 255.671875 560.851563 267.136719 571.609375 265.800781 "/>
<path style=" stroke:none;fill-rule:nonzero;fill:rgb(10.594177%,25.488281%,42.747498%);fill-opacity:1;" d="M 602.441406 256.761719 C 602.441406 256.761719 603.851563 261.8125 601.363281 264.453125 C 601.363281 264.453125 601.402344 269.933594 603.3125 266.769531 C 605.21875 263.582031 607.347656 257.25 602.441406 256.761719 "/>
<path style=" stroke:none;fill-rule:nonzero;fill:rgb(100%,81.25%,1.177979%);fill-opacity:1;" d="M 546.050781 223.394531 C 546.050781 223.394531 537.785156 257.667969 541.398438 265.941406 C 545.019531 274.210938 597.347656 263.496094 597.347656 263.496094 C 597.347656 263.496094 597.734375 255.910156 592.605469 253.957031 C 573.410156 246.617188 566.753906 247.449219 566.753906 247.449219 L 569.265625 217.867188 L 546.050781 223.394531 "/>
<path style=" stroke:none;fill-rule:nonzero;fill:rgb(100%,100%,100%);fill-opacity:1;" d="M 531.230469 223.996094 C 537.945313 221.863281 538.542969 215.214844 538.542969 215.15625 L 537.65625 215.085938 C 537.632813 215.332031 537.09375 221.195313 530.949219 223.148438 L 531.230469 223.996094 "/>
<path style=" stroke:none;fill-rule:nonzero;fill:rgb(100%,100%,100%);fill-opacity:1;" d="M 566.480469 236.558594 L 566.753906 235.707031 C 560.597656 233.753906 560.0625 227.710938 560.054688 227.640625 L 559.160156 227.710938 C 559.167969 227.78125 559.765625 234.425781 566.480469 236.558594 "/>
<path style=" stroke:none;fill-rule:nonzero;fill:rgb(98.4375%,77.734375%,70.506287%);fill-opacity:1;" d="M 560.253906 185.871094 C 559.644531 184.535156 556.640625 181.363281 552.621094 182.40625 C 547.234375 183.800781 538.925781 191.496094 531.542969 189.4375 C 524.132813 187.371094 522.878906 182.347656 521.578125 179.09375 C 520.296875 175.839844 521.308594 173.941406 520.351563 172.132813 C 519.386719 170.308594 517.28125 171.550781 518.097656 177.269531 C 518.484375 180.003906 518.789063 193.738281 527.140625 197.820313 C 538.089844 203.175781 563.722656 193.808594 560.253906 185.871094 "/>
<path style=" stroke:none;fill-rule:nonzero;fill:rgb(76.951599%,4.704285%,32.542419%);fill-opacity:1;" d="M 559.710938 183.035156 C 559.710938 183.035156 563.210938 188.019531 555.9375 193.425781 C 548.671875 198.824219 544.765625 200.183594 544.765625 200.183594 C 544.765625 200.183594 539.980469 196.679688 537.5625 187.699219 C 537.5625 187.699219 555.8125 175.316406 559.710938 183.035156 "/>
<path style=" stroke:none;fill-rule:nonzero;fill:rgb(100%,13.719177%,38.818359%);fill-opacity:1;" d="M 575.007813 186.640625 L 575 186.609375 C 572.511719 184.199219 568.855469 182.796875 566.058594 181.6875 C 559.902344 179.242188 549.292969 177.234375 544.207031 187.796875 C 542.539063 191.28125 540.847656 196.582031 539.652344 202.148438 C 539.371094 203.359375 539.109375 204.585938 538.925781 205.828125 C 537.9375 211.308594 535.320313 214.449219 536.460938 217.707031 C 539.347656 225.941406 565.628906 240.59375 570.777344 223.09375 C 571.546875 220.480469 573.597656 203.847656 575.285156 200.714844 C 579.105469 193.769531 577.886719 189.511719 575.007813 186.640625 "/>
<path style=" stroke:none;fill-rule:nonzero;fill:rgb(93.359375%,61.521912%,49.804688%);fill-opacity:1;" d="M 566.753906 173.664063 C 566.753906 173.664063 563.449219 178.035156 566.320313 181.351563 C 569.273438 184.757813 554.097656 189.125 555.042969 186.351563 C 556.238281 182.777344 558.578125 180.992188 557.675781 176.402344 L 566.753906 173.664063 "/>
<path style=" stroke:none;fill-rule:nonzero;fill:rgb(98.4375%,77.734375%,70.506287%);fill-opacity:1;" d="M 560.964844 162.804688 C 557.203125 165.089844 551.128906 177.3125 553.808594 180.855469 C 554.980469 182.394531 561.152344 182.234375 566.066406 177.324219 C 568.09375 175.328125 570.90625 171.34375 569.472656 166.449219 C 568.816406 164.230469 565.308594 160.148438 560.964844 162.804688 "/>
<path style=" stroke:none;fill-rule:nonzero;fill:rgb(10.594177%,12.547302%,26.660156%);fill-opacity:1;" d="M 557.445313 163.6875 C 556.414063 165.175781 556.535156 165.585938 561.265625 167.355469 C 565.996094 169.140625 566.894531 168.980469 566.152344 170.042969 C 563.976563 173.160156 567.597656 173.21875 564.949219 176.921875 C 562.308594 180.628906 566.929688 179.019531 569.441406 176.054688 C 569.925781 175.453125 572.679688 172.609375 571.371094 167.03125 C 569.855469 160.523438 561.257813 158.269531 557.445313 163.6875 "/>
<path style=" stroke:none;fill-rule:nonzero;fill:rgb(10.594177%,12.547302%,26.660156%);fill-opacity:1;" d="M 572.023438 241.246094 L 580.773438 231.902344 L 513.558594 168.957031 L 504.808594 178.300781 L 572.023438 241.246094 "/>
<path style=" stroke:none;fill-rule:nonzero;fill:rgb(10.594177%,12.547302%,26.660156%);fill-opacity:1;" d="M 488.4375 161.746094 L 505.414063 177.644531 L 512.941406 169.609375 L 495.875 153.636719 C 503.046875 149.339844 512.457031 150.089844 518.859375 156.082031 C 526.605469 163.332031 527.011719 175.484375 519.753906 183.230469 C 512.503906 190.972656 500.351563 191.371094 492.605469 184.117188 C 486.320313 178.234375 484.878906 169.109375 488.4375 161.746094 "/>
<path style=" stroke:none;fill-rule:nonzero;fill:rgb(98.4375%,77.734375%,70.506287%);fill-opacity:1;" d="M 575.453125 187.667969 C 574.3125 186.863281 571.097656 186.191406 568.355469 189.046875 C 564.671875 192.867188 561.75 203.269531 554.71875 205.269531 C 547.660156 207.277344 544.132813 203.824219 541.460938 201.824219 C 538.789063 199.816406 538.664063 197.773438 536.980469 196.777344 C 535.289063 195.773438 534.203125 197.835938 537.714844 202.074219 C 539.398438 204.105469 546.488281 215.125 555.316406 214.285156 C 566.878906 213.1875 582.238281 192.375 575.453125 187.667969 "/>
<path style=" stroke:none;fill-rule:nonzero;fill:rgb(76.951599%,4.704285%,32.542419%);fill-opacity:1;" d="M 574.542969 186.671875 C 574.542969 186.671875 579.871094 188.992188 576.65625 197.015625 C 573.4375 205.027344 570.9375 208.078125 570.9375 208.078125 C 570.9375 208.078125 565.292969 207.613281 558.855469 201.511719 C 558.855469 201.511719 567.519531 182.347656 574.542969 186.671875 "/>
<path style=" stroke:none;fill-rule:nonzero;fill:rgb(100%,81.25%,1.177979%);fill-opacity:1;" d="M 151.3125 210.71875 L 244.300781 210.71875 L 244.300781 104.53125 L 151.3125 104.53125 L 151.3125 210.71875 "/>
<path style=" stroke:none;fill-rule:nonzero;fill:rgb(100%,70.896912%,0.784302%);fill-opacity:1;" d="M 151.3125 113.132813 L 244.300781 113.132813 L 244.300781 104.53125 L 151.3125 104.53125 L 151.3125 113.132813 "/>
<path style=" stroke:none;fill-rule:nonzero;fill:rgb(100%,100%,100%);fill-opacity:1;" d="M 236.78125 109.144531 C 236.78125 110.246094 237.578125 111.140625 238.5625 111.140625 C 239.550781 111.140625 240.34375 110.246094 240.34375 109.144531 C 240.34375 108.046875 239.550781 107.152344 238.5625 107.152344 C 237.578125 107.152344 236.78125 108.046875 236.78125 109.144531 "/>
<path style=" stroke:none;fill-rule:nonzero;fill:rgb(100%,100%,100%);fill-opacity:1;" d="M 231.433594 109.144531 C 231.433594 110.246094 232.230469 111.140625 233.214844 111.140625 C 234.199219 111.140625 234.996094 110.246094 234.996094 109.144531 C 234.996094 108.046875 234.199219 107.152344 233.214844 107.152344 C 232.230469 107.152344 231.433594 108.046875 231.433594 109.144531 "/>
<path style=" stroke:none;fill-rule:nonzero;fill:rgb(100%,100%,100%);fill-opacity:1;" d="M 226.089844 109.144531 C 226.089844 110.246094 226.878906 111.140625 227.863281 111.140625 C 228.855469 111.140625 229.652344 110.246094 229.652344 109.144531 C 229.652344 108.046875 228.855469 107.152344 227.863281 107.152344 C 226.878906 107.152344 226.089844 108.046875 226.089844 109.144531 "/>
<path style=" stroke:none;fill-rule:nonzero;fill:rgb(100%,70.896912%,0.784302%);fill-opacity:1;" d="M 161.988281 148.257813 L 235.023438 148.257813 L 235.023438 142.601563 L 161.988281 142.601563 L 161.988281 148.257813 "/>
<path style=" stroke:none;fill-rule:nonzero;fill:rgb(100%,70.896912%,0.784302%);fill-opacity:1;" d="M 161.988281 140.5625 L 235.023438 140.5625 L 235.023438 124.3125 L 161.988281 124.3125 L 161.988281 140.5625 "/>
<path style=" stroke:none;fill-rule:nonzero;fill:rgb(100%,70.896912%,0.784302%);fill-opacity:1;" d="M 161.988281 156.316406 L 235.023438 156.316406 L 235.023438 150.664063 L 161.988281 150.664063 L 161.988281 156.316406 "/>
<path style=" stroke:none;fill-rule:nonzero;fill:rgb(100%,70.896912%,0.784302%);fill-opacity:1;" d="M 161.988281 164.371094 L 235.023438 164.371094 L 235.023438 158.714844 L 161.988281 158.714844 L 161.988281 164.371094 "/>
<path style=" stroke:none;fill-rule:nonzero;fill:rgb(100%,70.896912%,0.784302%);fill-opacity:1;" d="M 161.988281 183.144531 L 235.023438 183.144531 L 235.023438 167.386719 L 161.988281 167.386719 L 161.988281 183.144531 "/>
<path style=" stroke:none;fill-rule:nonzero;fill:rgb(100%,70.896912%,0.784302%);fill-opacity:1;" d="M 161.988281 203.660156 L 235.023438 203.660156 L 235.023438 187.90625 L 161.988281 187.90625 L 161.988281 203.660156 "/>
<path style=" stroke:none;fill-rule:nonzero;fill:rgb(100%,13.719177%,38.818359%);fill-opacity:1;" d="M 197.699219 236.910156 L 180.546875 236.910156 L 180.546875 247.980469 L 199.707031 247.980469 L 199.707031 256.625 L 169.960938 256.625 L 169.960938 209.996094 L 198.746094 209.996094 L 198.746094 218.648438 L 180.546875 218.648438 L 180.546875 228.335938 L 197.699219 228.335938 L 197.699219 236.910156 "/>
<path style=" stroke:none;fill-rule:nonzero;fill:rgb(100%,13.719177%,38.818359%);fill-opacity:1;" d="M 218.277344 230.679688 L 222.421875 230.679688 C 227.664063 230.679688 230.785156 228.054688 230.785156 223.96875 C 230.785156 219.6875 227.882813 217.539063 223.03125 217.46875 C 220.488281 217.46875 219.019531 217.679688 218.277344 217.816406 Z M 207.820313 210.621094 C 211.207031 210.066406 216.265625 209.648438 221.859375 209.648438 C 228.78125 209.648438 233.628906 210.691406 236.929688 213.316406 C 239.71875 215.53125 241.230469 218.789063 241.230469 223.066406 C 241.230469 229.023438 237.019531 233.101563 233.003906 234.558594 L 233.003906 234.761719 C 236.261719 236.078125 238.050781 239.191406 239.230469 243.476563 C 240.679688 248.742188 242.132813 254.828125 243.03125 256.625 L 232.238281 256.625 C 231.46875 255.3125 230.378906 251.511719 228.996094 245.769531 C 227.746094 239.953125 225.742188 238.363281 221.441406 238.289063 L 218.277344 238.289063 L 218.277344 256.625 L 207.820313 256.625 L 207.820313 210.621094 "/>
<path style=" stroke:none;fill-rule:nonzero;fill:rgb(100%,13.719177%,38.818359%);fill-opacity:1;" d="M 260.210938 230.679688 L 264.363281 230.679688 C 269.621094 230.679688 272.742188 228.054688 272.742188 223.96875 C 272.742188 219.6875 269.820313 217.539063 264.988281 217.46875 C 262.433594 217.46875 260.980469 217.679688 260.210938 217.816406 Z M 249.765625 210.621094 C 253.160156 210.066406 258.203125 209.648438 263.808594 209.648438 C 270.726563 209.648438 275.574219 210.691406 278.886719 213.316406 C 281.652344 215.53125 283.1875 218.789063 283.1875 223.066406 C 283.1875 229.023438 278.964844 233.101563 274.953125 234.558594 L 274.953125 234.761719 C 278.203125 236.078125 280.003906 239.191406 281.179688 243.476563 C 282.628906 248.742188 284.085938 254.828125 284.988281 256.625 L 274.183594 256.625 C 273.425781 255.3125 272.320313 251.511719 270.929688 245.769531 C 269.695313 239.953125 267.6875 238.363281 263.394531 238.289063 L 260.210938 238.289063 L 260.210938 256.625 L 249.765625 256.625 L 249.765625 210.621094 "/>
<path style=" stroke:none;fill-rule:nonzero;fill:rgb(100%,13.719177%,38.818359%);fill-opacity:1;" d="M 300.425781 233.449219 C 300.425781 242.585938 304.722656 249.011719 311.78125 249.011719 C 318.898438 249.011719 322.972656 242.234375 322.972656 233.175781 C 322.972656 224.804688 318.972656 217.605469 311.695313 217.605469 C 304.578125 217.605469 300.425781 224.390625 300.425781 233.449219 Z M 334.125 232.824219 C 334.125 248.109375 324.855469 257.390625 311.214844 257.390625 C 297.375 257.390625 289.289063 246.941406 289.289063 233.664063 C 289.289063 219.6875 298.214844 209.234375 311.984375 209.234375 C 326.304688 209.234375 334.125 219.960938 334.125 232.824219 "/>
<path style=" stroke:none;fill-rule:nonzero;fill:rgb(100%,13.719177%,38.818359%);fill-opacity:1;" d="M 352.417969 230.679688 L 356.5625 230.679688 C 361.816406 230.679688 364.925781 228.054688 364.925781 223.96875 C 364.925781 219.6875 362.019531 217.539063 357.164063 217.46875 C 354.628906 217.46875 353.160156 217.679688 352.417969 217.816406 Z M 341.972656 210.621094 C 345.355469 210.066406 350.410156 209.648438 355.992188 209.648438 C 362.925781 209.648438 367.769531 210.691406 371.082031 213.316406 C 373.855469 215.53125 375.382813 218.789063 375.382813 223.066406 C 375.382813 229.023438 371.15625 233.101563 367.148438 234.558594 L 367.148438 234.761719 C 370.398438 236.078125 372.183594 239.191406 373.375 243.476563 C 374.820313 248.742188 376.273438 254.828125 377.183594 256.625 L 366.378906 256.625 C 365.617188 255.3125 364.519531 251.511719 363.140625 245.769531 C 361.894531 239.953125 359.886719 238.363281 355.589844 238.289063 L 352.417969 238.289063 L 352.417969 256.625 L 341.972656 256.625 L 341.972656 210.621094 "/>
<path style=" stroke:none;fill-rule:nonzero;fill:rgb(98.4375%,77.734375%,70.506287%);fill-opacity:1;" d="M 122.902344 136.066406 C 123.878906 134.800781 127.910156 132.207031 131.910156 134.359375 C 137.261719 137.234375 144.109375 147.5625 152.492188 147.289063 C 160.90625 147.007813 163.535156 141.996094 165.757813 138.878906 C 167.964844 135.746094 167.382813 133.464844 168.875 131.789063 C 170.375 130.105469 172.28125 131.964844 169.933594 137.832031 C 168.820313 140.640625 164.9375 155.164063 155 157.339844 C 141.992188 160.199219 117.148438 143.605469 122.902344 136.066406 "/>
<path style=" stroke:none;fill-rule:nonzero;fill:rgb(92.96875%,64.646912%,1.177979%);fill-opacity:1;" d="M 124.203125 133.1875 C 124.203125 133.1875 119.203125 137.574219 125.519531 145.203125 C 131.847656 152.839844 135.65625 155.292969 135.65625 155.292969 C 135.65625 155.292969 141.644531 152.800781 146.539063 143.886719 C 146.539063 143.886719 130.363281 125.992188 124.203125 133.1875 "/>
<path style=" stroke:none;fill-rule:nonzero;fill:rgb(100%,70.896912%,0.784302%);fill-opacity:1;" d="M 103.929688 148.453125 C 107.644531 162.179688 105.597656 171.824219 103.929688 177.050781 C 107.804688 178.296875 105.496094 180.367188 105.398438 180.632813 C 99.914063 192 133.964844 185.269531 139.945313 176.066406 C 142 172.894531 140.03125 168.878906 140.398438 162.804688 C 140.53125 161.4375 140.570313 160.054688 140.585938 158.699219 C 140.753906 152.476563 140.332031 146.398438 139.453125 142.265625 C 136.785156 129.726563 124.988281 129.109375 117.8125 130.109375 C 114.550781 130.5625 110.296875 131.117188 107.035156 133.035156 L 107.011719 133.058594 C 103.203125 135.363281 101.175781 138.246094 103.929688 148.453125 "/>
<path style=" stroke:none;fill-rule:nonzero;fill:rgb(98.4375%,77.734375%,70.506287%);fill-opacity:1;" d="M 117.203125 121.019531 C 117.203125 121.019531 120.417969 126.074219 116.996094 129.449219 C 113.480469 132.898438 129.648438 138.996094 128.871094 135.890625 C 127.871094 131.878906 125.480469 129.734375 126.855469 124.808594 L 117.203125 121.019531 "/>
<path style=" stroke:none;fill-rule:nonzero;fill:rgb(98.4375%,77.734375%,70.506287%);fill-opacity:1;" d="M 124.472656 109.6875 C 128.363281 112.5 133.917969 126.363281 130.703125 129.996094 C 129.269531 131.574219 122.558594 130.855469 117.628906 125.082031 C 115.597656 122.722656 112.882813 118.128906 114.863281 112.914063 C 115.78125 110.550781 119.964844 106.410156 124.472656 109.6875 "/>
<path style=" stroke:none;fill-rule:nonzero;fill:rgb(10.594177%,12.547302%,26.660156%);fill-opacity:1;" d="M 128.226563 110.960938 C 129.21875 112.664063 129.054688 113.105469 123.742188 114.628906 C 118.441406 116.148438 117.457031 115.90625 118.164063 117.121094 C 120.28125 120.71875 116.320313 120.46875 118.886719 124.734375 C 121.441406 129.007813 116.542969 126.851563 114.074219 123.398438 C 113.589844 122.703125 110.835938 119.355469 112.75 113.394531 C 114.964844 106.429688 124.539063 104.722656 128.226563 110.960938 "/>
<path style=" stroke:none;fill-rule:nonzero;fill:rgb(98.4375%,77.734375%,70.506287%);fill-opacity:1;" d="M 95.136719 229.347656 C 91.730469 242.6875 87.730469 271.167969 94.28125 271.332031 C 100.820313 271.480469 104.480469 269.5 100.707031 268.441406 C 96.9375 267.375 96.78125 266.964844 96.898438 265.902344 C 98.519531 252.148438 120.035156 230.695313 121.855469 214.351563 C 122.472656 208.761719 122.894531 203.652344 123.1875 199.175781 C 125.632813 211.152344 123.832031 223.863281 124.050781 228.0625 C 124.734375 243.015625 127.933594 271.277344 135.101563 271.332031 C 142.730469 271.382813 146.476563 269.273438 141.601563 268.265625 C 137.386719 267.371094 137.5625 267.175781 137.640625 266.132813 C 138.660156 251.035156 145.984375 223.132813 147.386719 205.199219 C 149.015625 184.5 98.105469 217.6875 95.136719 229.347656 "/>
<path style=" stroke:none;fill-rule:nonzero;fill:rgb(8.227539%,7.054138%,17.259216%);fill-opacity:1;" d="M 131.078125 267.9375 C 131.078125 267.9375 136.769531 270.191406 140.285156 267.9375 C 140.285156 267.9375 146.699219 268.800781 142.675781 270.355469 C 138.625 271.921875 130.839844 273.214844 131.078125 267.9375 "/>
<path style=" stroke:none;fill-rule:nonzero;fill:rgb(8.227539%,7.054138%,17.259216%);fill-opacity:1;" d="M 91.5 268.441406 C 91.5 268.441406 97.199219 270.6875 100.707031 268.441406 C 100.707031 268.441406 107.128906 269.320313 103.082031 270.867188 C 99.042969 272.433594 91.261719 273.734375 91.5 268.441406 "/>
<path style=" stroke:none;fill-rule:nonzero;fill:rgb(10.594177%,12.547302%,26.660156%);fill-opacity:1;" d="M 142.324219 170.035156 C 129.277344 178.738281 111.035156 177.851563 103.929688 176.472656 C 102.003906 191.992188 90.34375 250.222656 89.03125 258.210938 C 94.761719 260.117188 96.667969 260.511719 98.320313 260.511719 C 125.980469 224.851563 122.804688 209.554688 123.085938 205.070313 C 124.132813 210.253906 120.71875 235.628906 126.695313 260.511719 C 128.695313 261.804688 134.753906 263.484375 139.09375 260.511719 C 139.316406 258.921875 147.429688 230.339844 147.253906 207.964844 C 147.128906 192.714844 144.585938 182.242188 142.324219 170.035156 "/>
<path style=" stroke:none;fill-rule:nonzero;fill:rgb(100%,100%,100%);fill-opacity:1;" d="M 104.84375 189.621094 C 112.957031 187.042969 113.664063 179.027344 113.671875 178.949219 L 112.597656 178.867188 C 112.582031 179.160156 111.917969 186.246094 104.511719 188.597656 L 104.84375 189.621094 "/>
<path style=" stroke:none;fill-rule:nonzero;fill:rgb(100%,100%,100%);fill-opacity:1;" d="M 142.808594 187.621094 L 143.140625 186.589844 C 135.710938 184.246094 135.054688 176.941406 135.054688 176.863281 L 133.972656 176.945313 C 133.980469 177.035156 134.695313 185.054688 142.808594 187.621094 "/>
<path style=" stroke:none;fill-rule:nonzero;fill:rgb(14.892578%,30.200195%,52.539063%);fill-opacity:1;" d="M 222.035156 131.988281 L 32.167969 198.53125 C 27.390625 200.199219 24.824219 205.230469 26.40625 209.761719 L 31.746094 224.984375 L 238.894531 152.394531 L 233.558594 137.164063 C 231.972656 132.632813 226.820313 130.3125 222.035156 131.988281 "/>
<path style=" stroke:none;fill-rule:nonzero;fill:rgb(80.076599%,86.71875%,98.826599%);fill-opacity:1;" d="M 66.355469 199.699219 C 67.078125 201.75 69.449219 202.800781 71.632813 202.035156 C 73.832031 201.265625 75.039063 198.960938 74.324219 196.914063 C 73.601563 194.859375 71.21875 193.8125 69.023438 194.578125 C 66.832031 195.347656 65.640625 197.644531 66.355469 199.699219 Z M 64.972656 200.1875 C 63.980469 197.367188 65.585938 194.230469 68.539063 193.191406 C 71.492188 192.160156 74.707031 193.609375 75.703125 196.429688 C 76.683594 199.246094 75.085938 202.382813 72.117188 203.414063 C 69.164063 204.457031 65.957031 203.003906 64.972656 200.1875 "/>
<path style=" stroke:none;fill-rule:nonzero;fill:rgb(80.076599%,86.71875%,98.826599%);fill-opacity:1;" d="M 52.195313 204.660156 C 52.925781 206.714844 55.28125 207.765625 57.480469 206.996094 C 59.664063 206.234375 60.863281 203.929688 60.140625 201.878906 C 59.425781 199.824219 57.050781 198.777344 54.859375 199.539063 C 52.671875 200.3125 51.480469 202.605469 52.195313 204.660156 Z M 50.8125 205.144531 C 49.820313 202.332031 51.425781 199.191406 54.378906 198.15625 C 57.328125 197.121094 60.535156 198.578125 61.53125 201.394531 C 62.519531 204.210938 60.917969 207.347656 57.957031 208.382813 C 55.011719 209.414063 51.804688 207.96875 50.8125 205.144531 "/>
<path style=" stroke:none;fill-rule:nonzero;fill:rgb(80.076599%,86.71875%,98.826599%);fill-opacity:1;" d="M 38.460938 209.484375 C 39.175781 211.535156 41.542969 212.578125 43.734375 211.816406 C 45.917969 211.039063 47.121094 208.75 46.398438 206.695313 C 45.675781 204.644531 43.3125 203.589844 41.113281 204.363281 C 38.929688 205.128906 37.742188 207.425781 38.460938 209.484375 Z M 37.074219 209.964844 C 36.089844 207.144531 37.691406 204.003906 40.628906 202.980469 C 43.589844 201.941406 46.789063 203.394531 47.773438 206.210938 C 48.757813 209.03125 47.171875 212.160156 44.21875 213.199219 C 41.265625 214.234375 38.058594 212.78125 37.074219 209.964844 "/>
<path style=" stroke:none;fill-rule:nonzero;fill:rgb(98.4375%,77.734375%,70.506287%);fill-opacity:1;" d="M 109.265625 134.261719 C 110.726563 134.730469 113.417969 137.109375 112.726563 141.390625 C 111.8125 147.113281 104.636719 156.511719 107.496094 163.980469 C 110.382813 171.464844 115.726563 172.277344 119.226563 173.308594 C 122.742188 174.328125 124.609375 173.089844 126.585938 173.902344 C 128.570313 174.730469 127.492188 177.042969 121.472656 176.753906 C 118.589844 176.617188 104.289063 177.652344 99.222656 169.382813 C 92.585938 158.546875 100.683594 131.433594 109.265625 134.261719 "/>
<path style=" stroke:none;fill-rule:nonzero;fill:rgb(92.96875%,64.646912%,1.177979%);fill-opacity:1;" d="M 109.179688 132.011719 C 109.179688 132.011719 105.203125 131.265625 100.304688 139.367188 C 95.40625 147.441406 94.382813 151.636719 94.382813 151.636719 C 94.382813 151.636719 98.507813 156.261719 108.066406 157.894531 C 108.066406 157.894531 118.84375 136.742188 109.179688 132.011719 "/>
<path style=" stroke:none;fill-rule:nonzero;fill:rgb(100%,13.719177%,38.818359%);fill-opacity:1;" d="M 165.964844 27.519531 C 165.964844 12.316406 183.101563 0 204.230469 0 C 225.355469 0 244.890625 17.007813 244.890625 32.207031 C 244.890625 47.117188 225.984375 54.558594 205.40625 55.011719 C 206.007813 63.503906 217.445313 67.53125 217.445313 67.53125 C 194.421875 69.738281 165.964844 52.070313 165.964844 27.519531 "/>
<path style=" stroke:none;fill-rule:nonzero;fill:rgb(100%,100%,100%);fill-opacity:1;" d="M 187.207031 27.554688 C 187.207031 28.875 187.757813 29.863281 188.785156 29.863281 C 189.714844 29.863281 190.3125 28.9375 190.3125 27.554688 C 190.3125 26.398438 189.875 25.230469 188.785156 25.230469 C 187.632813 25.230469 187.207031 26.414063 187.207031 27.554688 Z M 192.789063 27.476563 C 192.789063 30.296875 190.789063 31.597656 188.722656 31.597656 C 186.464844 31.597656 184.726563 30.109375 184.726563 27.613281 C 184.726563 25.117188 186.371094 23.527344 188.847656 23.527344 C 191.214844 23.527344 192.789063 25.152344 192.789063 27.476563 "/>
<path style=" stroke:none;fill-rule:nonzero;fill:rgb(100%,100%,100%);fill-opacity:1;" d="M 196.253906 27.554688 C 196.253906 28.875 196.804688 29.863281 197.828125 29.863281 C 198.765625 29.863281 199.359375 28.9375 199.359375 27.554688 C 199.359375 26.398438 198.921875 25.230469 197.828125 25.230469 C 196.679688 25.230469 196.253906 26.414063 196.253906 27.554688 Z M 201.839844 27.476563 C 201.839844 30.296875 199.832031 31.597656 197.765625 31.597656 C 195.507813 31.597656 193.773438 30.109375 193.773438 27.613281 C 193.773438 25.117188 195.414063 23.527344 197.890625 23.527344 C 200.261719 23.527344 201.839844 25.152344 201.839844 27.476563 "/>
<path style=" stroke:none;fill-rule:nonzero;fill:rgb(100%,100%,100%);fill-opacity:1;" d="M 205.605469 28.101563 C 205.605469 28.292969 205.621094 28.46875 205.652344 28.609375 C 205.8125 29.257813 206.367188 29.742188 207.058594 29.742188 C 208.105469 29.742188 208.71875 28.875 208.71875 27.570313 C 208.71875 26.335938 208.164063 25.40625 207.089844 25.40625 C 206.414063 25.40625 205.8125 25.910156 205.652344 26.621094 C 205.621094 26.742188 205.605469 26.902344 205.605469 27.046875 Z M 203.214844 26.285156 C 203.214844 25.273438 203.179688 24.410156 203.144531 23.699219 L 205.230469 23.699219 L 205.34375 24.769531 L 205.371094 24.769531 C 205.9375 23.953125 206.828125 23.527344 207.941406 23.527344 C 209.628906 23.527344 211.148438 24.992188 211.148438 27.457031 C 211.148438 30.265625 209.367188 31.597656 207.640625 31.597656 C 206.714844 31.597656 205.984375 31.210938 205.640625 30.707031 L 205.605469 30.707031 L 205.605469 34.542969 L 203.214844 34.542969 L 203.214844 26.285156 "/>
<path style=" stroke:none;fill-rule:nonzero;fill:rgb(100%,100%,100%);fill-opacity:1;" d="M 212.519531 29.320313 C 212.964844 29.585938 213.878906 29.902344 214.59375 29.902344 C 215.316406 29.902344 215.617188 29.652344 215.617188 29.257813 C 215.617188 28.859375 215.378906 28.671875 214.480469 28.371094 C 212.886719 27.835938 212.273438 26.96875 212.289063 26.050781 C 212.289063 24.613281 213.523438 23.527344 215.425781 23.527344 C 216.328125 23.527344 217.132813 23.730469 217.605469 23.972656 L 217.179688 25.621094 C 216.828125 25.4375 216.167969 25.1875 215.507813 25.1875 C 214.921875 25.1875 214.59375 25.421875 214.59375 25.8125 C 214.59375 26.179688 214.890625 26.367188 215.84375 26.695313 C 217.304688 27.199219 217.917969 27.941406 217.933594 29.082031 C 217.933594 30.515625 216.800781 31.578125 214.59375 31.578125 C 213.582031 31.578125 212.683594 31.351563 212.101563 31.042969 L 212.519531 29.320313 "/>
<path style=" stroke:none;fill-rule:nonzero;fill:rgb(100%,13.719177%,38.818359%);fill-opacity:1;" d="M 480.769531 125.878906 L 529.976563 40.644531 C 532.394531 36.460938 538.4375 36.460938 540.855469 40.644531 L 590.0625 125.878906 C 592.488281 130.066406 589.460938 135.300781 584.625 135.300781 L 486.207031 135.300781 C 481.371094 135.300781 478.34375 130.066406 480.769531 125.878906 "/>
<path style=" stroke:none;fill-rule:nonzero;fill:rgb(100%,100%,100%);fill-opacity:1;" d="M 493.171875 119.824219 L 531.210938 53.945313 C 533.078125 50.707031 537.753906 50.707031 539.621094 53.945313 L 577.660156 119.824219 C 579.527344 123.0625 577.191406 127.109375 573.453125 127.109375 L 497.378906 127.109375 C 493.636719 127.109375 491.304688 123.0625 493.171875 119.824219 "/>
<path style=" stroke:none;fill-rule:nonzero;fill:rgb(100%,13.719177%,38.818359%);fill-opacity:1;" d="M 532.0625 102.910156 L 530.777344 77.730469 L 539.617188 77.730469 L 538.394531 102.910156 Z M 530.222656 110.746094 C 530.222656 107.804688 532.273438 105.6875 535.226563 105.6875 C 538.171875 105.6875 540.117188 107.804688 540.171875 110.746094 C 540.171875 113.640625 538.222656 115.804688 535.226563 115.804688 C 532.226563 115.804688 530.222656 113.640625 530.222656 110.746094 "/>
</g>
</svg>
